/* XPM */
static char *Collectable[] = {
/* columns rows colors chars-per-pixel */
"80 80 189 2 ",
"   c #14120E",
".  c #19150F",
"X  c #1F1A0F",
"o  c #161610",
"O  c #1B1511",
"+  c #1A1B12",
"@  c #171810",
"#  c #201B0F",
"$  c #211612",
"%  c #231914",
"&  c #2B1B15",
"*  c #2C1D19",
"=  c #331D19",
"-  c #3A1F1C",
";  c #331E16",
":  c #1E2315",
">  c #182219",
",  c #232414",
"<  c #222917",
"1  c #2C2C15",
"2  c #232D18",
"3  c #2C2218",
"4  c #34221A",
"5  c #3C241D",
"6  c #392E13",
"7  c #26321A",
"8  c #29361C",
"9  c #2A391E",
"0  c #363919",
"q  c #3C3816",
"w  c #1B3022",
"e  c #292723",
"r  c #3B2925",
"t  c #2E3F20",
"y  c #373826",
"u  c #42261E",
"i  c #47281F",
"p  c #4D291E",
"a  c #49271C",
"s  c #532B1E",
"d  c #463F1A",
"f  c #432520",
"g  c #4A2421",
"h  c #432921",
"j  c #4C2C22",
"k  c #422D2A",
"l  c #562B24",
"z  c #5A2927",
"x  c #5A2A28",
"c  c #552927",
"v  c #48302D",
"b  c #5B3224",
"n  c #5A3428",
"m  c #553835",
"M  c #632D2B",
"N  c #6A2F2E",
"B  c #732F2F",
"V  c #613224",
"C  c #6A3626",
"Z  c #64372A",
"A  c #643A2C",
"S  c #6D3B2B",
"D  c #6D302F",
"F  c #743C2B",
"G  c #6B3E31",
"H  c #723331",
"J  c #7C3534",
"K  c #1F402D",
"L  c #2F4121",
"P  c #344924",
"I  c #304422",
"U  c #3D592A",
"Y  c #395428",
"T  c #204631",
"R  c #43481D",
"E  c #514B1D",
"W  c #6E5619",
"Q  c #7B611D",
"!  c #405F2C",
"~  c #4C5220",
"^  c #555A3B",
"/  c #4A4E2B",
"(  c #7C432F",
")  c #7C4533",
"_  c #42632E",
"`  c #5A6425",
"'  c #446730",
"]  c #466A31",
"[  c #486D32",
"{  c #4C7435",
"}  c #4E7936",
"|  c #507B37",
" . c #527F39",
".. c #626C27",
"X. c #717E2D",
"o. c #6D7229",
"O. c #784C4A",
"+. c #737A4F",
"@. c #79625F",
"#. c #6A7049",
"$. c #823636",
"%. c #8B3939",
"&. c #853C3B",
"*. c #923C3C",
"=. c #993F3F",
"-. c #9D791F",
";. c #92711E",
":. c #886A1D",
">. c #82422F",
",. c #834836",
"<. c #8C4A35",
"1. c #8B4C39",
"2. c #874535",
"3. c #944B3A",
"4. c #9C523B",
"5. c #A3543B",
"6. c #AA593F",
"7. c #A8563C",
"8. c #B05A3F",
"9. c #80792B",
"0. c #9D4242",
"q. c #924646",
"w. c #8E5755",
"e. c #A44444",
"r. c #AA4646",
"t. c #AE4948",
"y. c #B64D4C",
"u. c #BE4E4E",
"i. c #AA5940",
"p. c #A75B5A",
"a. c #AB5151",
"s. c #BA594B",
"d. c #BD6144",
"f. c #A66766",
"g. c #AF6866",
"h. c #B26E6C",
"j. c #B97271",
"k. c #C0504F",
"l. c #C45151",
"z. c #CC5454",
"x. c #CF5959",
"c. c #D35E5E",
"v. c #C36446",
"b. c #D66464",
"n. c #D86D6D",
"m. c #C87A7A",
"M. c #DF7373",
"N. c #E57E7E",
"B. c #E17676",
"V. c #79872F",
"C. c #77852E",
"Z. c #7E8C30",
"A. c #7A8254",
"S. c #8A9B35",
"D. c #8B842F",
"F. c #AD8E29",
"G. c #8FA036",
"H. c #96A938",
"J. c #9EB23B",
"K. c #A1B53C",
"L. c #A5BA3D",
"P. c #AABF3F",
"I. c #D5A62B",
"U. c #ABC13F",
"Y. c #D6C53F",
"T. c #818959",
"R. c #9FAB6E",
"E. c #A9B675",
"W. c #AEC440",
"Q. c #E4D846",
"!. c #F1E248",
"~. c #BF8584",
"^. c #D28080",
"/. c #E98585",
"(. c #EA8C8B",
"). c #F08F8F",
"_. c #ED9090",
"`. c #E19695",
"'. c #F19393",
"]. c #F6B3B3",
"[. c #F3A2A2",
"{. c #C8D88A",
"}. c #CFE08F",
"|. c #D3E592",
" X c #D7E894",
".X c #F9CECE",
"XX c #EEEEEE",
"oX c #FCE2E2",
"OX c #FFFFFF",
/* pixels */
"W.W.W.W.W.W.W.W.W. .W.W.W.W.W.W.W.W.W.W.W.W.W.W.W. . . . .W.W.W.W.W.W.W.W.W.W.W.W.W.W.W.W.W.W.W.W.W.W.W.W.W.W.W.W. .W.W.W.W.W.W.W.W.W.W.W.W.W.W.W. . . . .W.W.W.",
"W.W.W. .W.W.W.W.W.W.W.W.W.W.W.W.W.W.W.W.W.W.W.W.W. .W.W. .W.W.W.W.W.W. . .W.W.W.W.W. . .W.W.W.W.W.W.W. .W.W.W.W.W.W.W.W.W.W.W.W.W.W.W.W.W.W.W.W.W. .W.W. .W.W.W.",
"W.W.W.W.W.W.W.W.W.W.W.W.W.W.W.W.W.W.W.W.W.W.W.W.W. .W.W. .W.W.W.W.W.W. . .W.W.W.W.W. . .W.W.W.W.W.W.W.W.W.W.W.W.W.W.W.W.W.W.W.W.W.W.W.W.W.W.W.W.W. .W.W. .W.W.W.",
"W.W.W.W.W.W.W.W.W.W.W.W. . . . .W.W.W.W.W.W.W.W.W. . . . .W.W.W.W.W.W.W.W.W.W.W.W.W.W.W.W.W.W.W.W.W.W.W.W.W.W.W.W.W.W.W. . . . .W.W.W.W.W.W.W.W.W. . . . .W.W.W.",
"W.W.W.W.W.W.W.W.W.W.W.W. .W.W. .W.W.W.W.W. . . .W.W.W.W.W.W.W.W.W.W.W.W.W.W.W.W.W.W.W.W.W.W.W.W.W.W.W.W.W.W.W.W.W.W.W.W. .W.W. .W.W.W.W.W. . . .W.W.W.W.W.W.W.W.",
" .W.W.W.W.W.W.W.W.W.W.W. .W.W. .W.W.W.W.W. . . .W.W.W.W.W.W.W.W.W.W.W.W.W.W.W.W.W.W.W.W.W.W. . . .W.W.W.W.W.W.W.W.W.W.W. .W.W. .W.W.W.W.W. . . .W.W.W.W.W.W.W.W.",
" .W.W.W.W.W.W.W.W.W.W.W. . . . .W.W.W.W.W. . . .W.W.W.W.W.W.W. . . .W.W.W.W.W.W.W.W.W.W.W.W. .W. .W.W.W.W.W.W.W.W.W.W.W. . . . .W.W.W.W.W. . . .W.W.W.W.W.W.W. .",
" .W.W.W.W.W.W.W.W.W.W.W.W.W.W.W.W.W.W.W.W.W.W.W.W.W.W.W.W.W.W. .W. .W.W.W.W.W.W.W.W.W.W.W.W. . . .W.W.W.W.W.W.W.W.W.W.W.W.W.W.W.W.W.W.W.W.W.W.W.W.W.W.W.W.W.W. .",
"W.W.W.W.W.W.W. . .W.W.W.W.W.W.W.W. . .W.W.W.W.W.W.W.W.W.U.U.L.A. . .W.W.W.W.W.W.W.W.W.W.W.W.W.W.W.W.W.W.W.U.L.}  .W.W.W.W.W.W.W.W. . .W.W.W.W.W.W.W.W.W.W.W.W. .",
"W.W. .W.W.W.W. . .W.W.W.W.W.W.W.W. . .W.W.W.W.W.W. .W.W.U.U.U.W.W.W. .W.W.W.W.W. .W.W.W.W.W.W.W.W.W. .W.W.U.U.A. .W.W.W.W.W.W.W.W. . .W.W.W.W.W.W. .W.W.W.W.W.W.",
"W.W.W.W.W.W.W.W.W.W.W.W.W.W.W.W.W.W.U.U.W.W.W.W.W.W.W.W.W.W.W.W.W.W.W.W.W.W.W.U.W.W.W.W.W.W.W.W.W.W.W.W.W.W.W.W.W.W.W.W.W.W.W.W.W.W.U.U.W.W.W.W.W.W.W.W.W.W.W.W.",
" XW.W.W. X XW.W.W.W.W.W.W. X XW.W.W. X XW.W.W. X XW.W. X XW.W.U. X XW.W.W. X XU.W. X XW.W.W.W. X XW.W.W. X XW.U.W.W.W.W.W. X XW.W.W. X|.W.W.W. X XW.W. X XW.W.W.",
" X X X X X X X X X X X X X X X X X X X X X X X X X X X X|. X X X X X X X X X X X X X X X X X X X X X X X|.|. X X X X X X X X X X X X X}. X X X X X X X X X X X X",
" . X X X . . X X X X X X X . . X X}. . . X X X . . X X . .|. X X . . X X X . .}. X . .|. X X X . . X X X . . X X X X X|. X . . X X|.A.{  X X X . . X X . . X X X",
"OX . . .OXOX . . . . . . .OXOX .}  .OXOX . . .XXXX . .XXOX . . .XXXX . . .XXOX}  .XXOX}  . . .XXXX . . .XXOX . .C.}  . .} OXOX .C.} OXXX}  . .OXOX . .OXOX . . .",
" . . . . . . . . . . . . . . . .} C.}  . . . . . . . .C. . . . .A.}  . . . .C.}  . .C.}  . . . .C. . . . . . . .} }  . . . . .{ U I / , V.W.W.W.W.W.W.W.W.W.W.W.",
"W.W.W.W.W.W.W.W.W.W. .W.W. X X . .T T T T T T T T T T T T T T T T T T T T T T T T T T T T T T T T T T T T T T T T T T T T w > @ O       X.U.W.W.W.W.W.W. . .W.W.",
"W.W.W.W.W.W.W.W.W.W.W.W.W. X X . .T T  . . . . . . . . . . . . . . . . . . . . . . . . . . . . . . . . .} C.C.} } { _ e @         O     ..W.W.W.W.W.W.W. . .W.W.",
"W.W.W.W.W.W.W.W.W.W.W.W. X X .OX .T  . . .W.W.W.W.W.W.W.W.W.W.W.W.W.W.W.W.W.W.W.W.W.W.W.W.W.W.W.W.W.U.U.W.W.W.J.C.w   o o @ r O.w.w.O   o.W.W.W.W.W.W.W.W.W.W.W.",
"W.W.W.W.W.W.W.W.W.W.W.W. X X .OX . . . . X X XW.W.W.W.W. XW.W.W.W.W.W.W.W.W.W.W.W.W.W.W.W.W.W.W.W.W.U.U.W.L...1       > @.~._.`.m.p.O   o.W.W.W.W.W.W.W.W.W.W.W.",
"W.W. . .W.W.W.W.W.W.W.W.W. X X . . . . X X X X XW.W.W.W.W.W.W.W.W.W.W. X X X XW.W.W.W.W.U.W.W.W.W.W.U.|.T.1     O r f.`.oXoX].N.a.&.O o V.W.U.}  . .W.W.W.W.W.W.",
"W.W. . .W.W.W.W.W.W.W.W.W. X X . . .W. X X X X XW.W.W.W.W.W.W.W.W.W. X X X X X XW.W.W.W.U.L.W.W.W.W.E.Y       v h.'.'.[..X].'.y.$.z o o Z.U.U.} W. .W.W.W.W.W.W.",
"W.W.W.W.W.W.W.W.W.W. .W.W. X X . . .W. X XW.W.W. . . . . . . . . . .W.W.W.W.W.W. . . . .{  .} C. .K >     r f._.'.).N.b.B.'.(.0.*.*   L W.W.W.A. . .W.W.W.W.W.W.",
"W.W.W.W.W.W.W. . . .W.W. X X .OX . .W.W.W.W.W. . . . . . . . . . . .W.W.W.W.W.W. . . . .C.} } ] K >   + w.(._._.N.c.z.z.n.n.a.*.G @   { W.W.W.W.W.W.W.W.W.W.W.W.",
"W.W.W.W.W.W.W. .W. .W.W. X X .OX . .W. . . . . .|.U. . . . . . . . .W.W.W.W.W.W. . . . . . ._ >     v m.'.'./.b.z.z.z.x.(.n.*.J + o @ G.W.C.W.W.W.W.W.W.W.W.W.W.",
"W.W.W.W.W.W.W. . . .W.W.W. X X . . .W. . . . . .U.U. . . . . . . . . .W.W.W.W. . . . . . .T o o   O.(.'.).n.z.z.z.z.y.z.u.q.B c     #.W.U.L.W.W.W.W.W.W.W. .W.W.",
"W.W.W.W.W.W.W.W.W.W.W.W.W. X X . . .W. . . . . . . . . . . . . . . . . . . . . .{  .C.| K     + h.'.'./.c.z.z.z.z.%.e.e.=.$.g o o > {. XU.W.W.W.W.W.W.W.W.W.W.W.",
"W.W.W.W.W.W.W.W.W.W.W.W.W. X X . . .W. . . . . . . . . . . . . . . . . . . . . .C.} { 7     e ^.'.'.M.z.z.z.z.y.z J z.e.%.c o   w {  X XU.W.W.W.W.W.W.W.W.W.W.W.",
"W. . . . .W.W.W.W.W.W.W. X X .OX . .W. . . .}  . . . . . . . . . . . . . . . . . . .{ O o O j.'.).b.z.z.z.z.*.* M k.k.=.z     + [  X XW.W.W.W.W.W.W.W.W.W.W.W.W.",
"W. .W.W. .W.W.W.W.W.W.W. X X .OX . .W. . . .} {  . . . . . . . . . . . . . . . . . .' O   % m./.c.z.z.z.l.c O M l.*.0.e.D   o '  . X XU.W. . .W.W.W.W.W.W.W.W.W.",
"W. .W.W. .W.W.W.W.W.W.W.W. X X . . .W. . . . .C. . . . . . . . . . . . . . . . . . .U       g.x.z.z.z.=.=   f k.z.l.l.0.B     '  . X XW.W. . .W.W.W.W.W.W.W.W.W.",
"W. . . . .W.W.W.W.W. .W.W. X X . . .W. . . .C.}  . . . . . . . . . . . . . . . .| | t   O   p.z.z.k.M $   - l.z.u.z.t.%.N o @ ]  . X XW.W.W.W.W.W.W.W.W.W.W. .W.",
"W.W.W.W.W.W.W.W.W.W.W.W. X X .XX . .W. . . . . . . . . . . . . . . . . . . . . .} } >   >   &.z.0.- o   - t.z.z.l.t.$.*.-   O }  . X XW.W.W.W.W.W.W.W.W.W.W.W.W.",
"W.W.W.W.W. . . .W.W.W.W. X X .XX . .W.W.U.U. . . . . . . . . . . . . . . . . . .C.[     r   H H o o   O r.z.z.l.r.=.=.N O   t |  . X XW.W.W.W.W.W.W.W.W.W.W.W.W.",
"W.W.W.W.W. . . .W.W.W.W.W. X|.C. . . XW.U.W.U. . . . . . . . . . . . . . . . . .} 8 . . m o O       O 0.z.z.z.e.=.%.g O   3 [  . . X XW.W.W.W.W. . . . .W.W.W.W.",
"W.W.W.W.W. . . .W.W.W.W.W. X|. . . . XW.W.W.L. . . . . . . . . . . . . . . . .} 8     . e o       O z t.z.l.%.B =.-     . S. . .XX . X XW.W.W.W. .W.W. .W.W.W.W.",
"W.W.W.W.W.W.W.W.W.W.W.W.W. X X . . . XW.U.W.W. . . . . . . .U. . . . . . . .{ w                   B *.t.u.e.$.$.=   > K H.W.C.C.XXA.}. XW.W.W.W. .W.W. .W.W.W.W.",
"W.W.W.W.W.W.W.W.W.W.W.W. X X .OX . .W.W.U.U.C. . . . . . . . . . . . .}  .[ >   . b S           o - c $.J $.M g     Y K.W. X} {  . X|.U.W.W.W.W. . . . .W.W.W.W.",
"W.W.W.W.W.W.W.W.W. . .W. X X .XX . .W. . . . . . . . . . . . . . . .C.{ U @     ( v.d.p             O O * * $     2 U.U.U.|.}  . . X XW.W.W.W.W.W.W.W.W.W.W.W.W.",
"W.W.W.W.W.W.W.W.W. . .W.W. X X . . .W. . . . . . . . . . . . . . . . .P >   > ) v.v.4.C 5 .         $ c c =     2 }  .W.U.U. . . . X XW.W. . .W.W.W.W.W.W.W.W.W.",
"W.W.W.W.W.W.W.W.W.W.W.W.W. X|. . . .W. . . . . . . . . . . . . . .C.T     & 4.v.v.3.C s j a @             @ > w ] C. . . .U. . .OXC.}. XU. . .W.W.W.W.W.W.W.W.W.",
"W.W.W.W. . . . .W.W.W.W.W. X}.C. . .W. . . . . . . . . . . . . .} w o   + 4.v.d.<.V s s i @   @ 7 K w > @ > K } } }  . . .U. . .XX .}. XW.U.W.W.W.W.W.W.W.W.W.W.",
"W.W.W.W. .W.W. .W.W.W.W. X X .OX . .W. . . . . . . . . . . . .{ 7     e ,.6.v.>.V s s a     @ T C.{  .J.{ C. . .C.}  . . .W. . . . X XW.W.W.W.W.W.W.W.W.W.W.W.W.",
"W.W.W.W. .W.W. .W.W.W.W. X X .XX . .W. . . . . . XU. . . . .{ w     e i.1.7.F V s s - .   @ U }  .}  .} } }  . .{ }  . . .W. . . . X XW.W.W.W.W. . . .W.W.W.W.W.",
"W.W.W.W. . . . .W.W.W.W.W. X X . . .W. . . . . .L.U. . .C.' >     i 1.) ( v j p a ;     > U  . . . . . . . . . . . . . . .W. . . . X XW.W.W.W.W. . . .W.W.W.W.W.",
"W.W.W.W.W.W.W.W.W.W.W.W.W. X X . . .W. . . . . . .}  . .Y @     ) 1.6.6.b u i a %     > ! C. . . . . . . . . . . . . . . .W. . .XX}  X XW.W.W.W. . . .W.W.W.W.W.",
"W.W.W.W.W.W.W.W.W.W.W.W.W. X X . . .W. . . . . .C.} C.P       n 1.) ,.C p h s %   . , ] }  . . . . . . . . . . . . . . . .W. . .XXA. X XW.W.W.W.W.W.W.W.W.W.W.W.",
"W. .W.W.W.W.W.W.W.W.W.W.W. X X . . .W. . . . . .} { K     > ) 4.6.A i 5 5 4 +     8 { C. . . . . . . . . . . . . . . . . .W. . . . X XW.W. .W.W.W.W.W. . . . .W.",
"W.W.W.W.W.W.W.W.W. . .W.W. X X . . .U. . . . . .{ w @   $ 5.4.4.<.b u p 6 @ @ @ T  . . . . . . . . . . . . . . . . . . . .W. . . . X XU.W.W.W.W.W.W.W. .W.W. .W.",
"W.W.W.W.W.W.W.W.W. . .W.W. X X . . .U. . . . .] w     , ,.,.) n s p 5 5 @   @ T  . . . . . . . . . . . . . . . . . . . . .W. . .XX}  X XW.W.W.W.W.W.W. .W.W. .U.",
"W.W.W.W.W.W.W.W.W.W.W.W.U. X X . . .L. . . .[ w   @ b 4.4.8.Z h i u &     @ U  . . . .W.W. . . . . . . . . . .U.U. . . . .W. . .XXA. X XW.W.W.W.W.W.W. . . . .W.",
"W.W.W.W.W.W.W.W.W.W.W.W. X|. .OX . .U. . .' w     5 1.1.<.S l f s 4     > _  . . . . .W.W. . . . . . . . . . .U. X . . . .W. . . . X XW.W.W.W.W.W.W.W.W.W.W.W.W.",
"W.W.W.W.W.W.W.W.W.W.W.W. X XC.XX} } U.C.U @   + A 1.6.S k i h 4 %     : [  . . . . . . . . . . . . . . . . . . . . . . . .W. . .} }.|.W.W.W.W.W.W.W.W.W.W.W.W.W.",
"W.W. .W.W.W.W.W.W.W.W.W.U. X X .{ C.L.T     . 1.i.4.4.V 5 s p $ .   2 {  . . . . . . . . . . . . . . . . . . . . . . . . .W. . .C.}. XU.W.W. . . .W.W.W.W.W.W.W.",
"W.W.W.W.W.W.W.W.W.W. .W.U. X X .C.{ `     % A ) ) n b s 5 a O     9 } U.W.W.W. . . . . . . . . . . . . . . . . . . . . . .W. . .OX . X XW.W. .W. .W.W.W.W.W.W.W.",
"W.W.W.W.W.W.W.W.W.W.W.U.U. X|. .] 8     4 4.3.d.( r i u 4 @   o P  .U.U.W.W.W.U. . . . . . . . . . . . . . . . . . .} C. .W. . .OX . X XW.W. . . .W.W.W.W.W.W.W.",
"W.W.W.W.W.U. .}  .W.W.W.|.R.w > @     3 1.4.,.>.b 5 s 6     > T  .C.W.W.W.W.W.W. . . . . . . . . . . .W.W. . . . . . . .W.W. . . . X XW.W. .W.W.W.W.W.W.W.W.W.W.",
"W.W.W.W.W.U. .K. .W.W.W.A.@ o @   . b d.5.( j i u 5 ;     > !  .C.} W.W.W.W.W.W. . . . . . . . . . .W.W.W.W. . . . . .W.W.W. . . . X XW.W.W.W.W.W.W.W.W. . .W.W.",
"W.W.W.W.W.W.C.C. .W.W.Z.    ,     b v.v.i.S u s p &     : G.W.W.J.U. X X X X X XW.W.W.W.W.W.W.W.W.W. X X X XW.W.U.U.W. XW.W. . . . X XW.W.W.W.W.W.W.W.W. . .W.W.",
"W.W.W.W.W.W.W.W.W.W.W.T   6 H.@ . >.v.5.S s u p &     9 H.U.W.W.L.U.W. X X X XW.W.W.W.W.W.W.W.W.W.W.W. X XW.W.W.U.U.W.W.W. . . .XX . X XW.W.W.W.W.W.W.W.W.W.W.W.",
"W.W.W.W.W.W.W.W.U.U.P.,   9.Q.&   S 8.C s s r @     R J. XW.W.W.W.W.W.W.W.W.W.W.W.W.W.W.W.W.W.W.W.W.W.W.W.W.W.W.W.W.W.W. . . . .XXA.}. XW.W.W.W.W.W.W.W.W.W.W.W.",
"W.W. . .W.W.W.W.W.U.J.+   9.!.R   % F s s a @     ~ L.W.W.W.W.W.W.W.W.W.W.W.W.W.W.W.W.W.W.W.W.W.W.W.W.W.W.W.W.W.W.W.W. . . .T  . . X|.U.W.W.W.W.W.W.W.W.W.W.W.W.",
"W.W. . .W.W.W.W.W.W.L.&   o.!.-..   X & & .   @ T { C.}  . . . . . . . . . . . . . . . . . . . . . . . . . . . . . . . . .T T  . . X XW.W. .W.W.W.W.W.W.W.W.W.W.",
"W.W.W.W.W.W.W.W.W.W.P.R   6 Y.I.Q .         @ T  .} C.}  . . . . . . . . . . . . . . . . . . . . . . . . . . . . . . . . . . . . . . . . . . . . . . . . . . . .",
"OX .C.} XXOX . .XXOXC._ >   / F.F.;.a & @     [ C.} } XXOX . . .OXOX} C.} } XXOXC.} XXOX . . .XXOXC. . .XXXX . .XXOXC. . .XXOX . . .XXOX . . . . . . .XXOXC. . .",
" .|. X X . .|.|. . .}.}.'     1 ;.-.-.W X   I }.|.|.}.C.C.}.|.|. . .|. X|.|. . .}.|. . . X X X . .}. X XA.}  X X . .}.}. X . . X X|.} C.|.|. X X X X X .} }. X X",
"|. X X X X X|. X X X X X{.^     . # X   @ : E. X X X X X X X X X X X X X X X X X X X|. X X X X X}. X X X X X X X X X X X X X X X X X X X X X X X X X X X|. X X X",
" XU.U.W. X XW.W. X XW.W.W.{.+.>         9 Z.U.W.W.W.W. X XU.U.U. X XW.W.U.U. X XU.U. X XW.W.W. X XU.W.W. X XW.U. X XW.W.W. X XW.U.U. X XW.W.W.U.W.W.W. X XU.U.U.",
"W.W.W.W.W.W.W.W.W.W.W.W.W.W.W.J.C.` C.Z.L.U.U.W.W.W.W.W.W.W.W.W.W.W.W.W.W.W.W.W.W.W.W.W.W.W.W.W.W.W.W.W.W.W.W.W.W.W.W.W.W.W.W.W.W.W.W.W.W.W.W.W.W.W.W.W.W.W.W.W.",
"W.W.W.W.W.W.L.A.W.W.W.W.W.W. . .U.U.U.U.U.U.U.U. . .W.W.W.W. .W.W.W.W.W.W.W.W.W.A.W.W.W.W.W. .W.W.W.W.W.W.W.W. .W.W.W.W.W.W. . .W.W.W.W.W.W.W.W. . .W.W.W.W. .W.",
" . .W.W.W.W.L.U.W.W.W.W.W.W. . .U.U.U.U.U.U.U.Y. . .W.W.W.W.W.W.W.W.W.W.W.W.W.W.L.W.W.W.W.W.W. . . .W.W.W.W.W.W.W.W.W.W.W.W. . .W.W.W.W.W.W.W.W. . .W.W.W.W.W.W.",
"W. .W.W.W.W.W.U.W.W.W.W.W.W.W.W.U.U.U.U.U.U.U.U.W.W.W.W.W.W.W.W. . . .W.W.W.W.W.L.U.W.W.W.W.W. .W. .W.W.W.W.W.W.W.W.W.W.W.W.W.W.W.W.W.W.W.W.W.W.W.W.W.W.W.W.W.W.",
" . .W.W.W.W.W.W.W. . . .W.W.W.W.W. . . . .W.W.W.W.W.W.W.W.W.W.W. .W. .W.W.W.W.W.W.W.W.W.W.W.W. . . .W.W.W.W.W.W.W. . . .W.W.W.W.W. . . . .W.W.W.W.W.W.W.W.W.W.W.",
"W.W.W.W.W.W.W.W.W. . . .W.W.W.W.W. .W.W. .W.W.W.W.W.W.W.W.W.W.W. . . .W.W.W.W.W.W.W.W.W.W.W.W.W.W.W.W.W.W.W.W.W.W. . . .W.W.W.W.W.C.U.L. .W.W.W.W.W.W.W.W.W.W.W.",
"W.W.W.W.W.W.W.W.W. . . .W.W.W.W.W. .W.W. .W.W.W.W.W.W.W.W.W.W.W.W.W.W.W.W.W.W.W.W.W.W.W.W.W.W.W.W.W.W.W.W.W.W.W.W. . . .W.W.W.W.W. .U.U. .W.W.W.W.W.W.W.W.W.W.W.",
"W.W.W.W. . . . .W.W.W.W.W.W.W.W.W. . . . .W.W.W.W.W.W.W.W.W.W.W.W.W.W.W.W.W.W.W.W.W.W.W.W.W.W.W.W.W.W.W. . . . .W.W.W.W.W.W.W.W.W. . . . .W.W.W.W.W.W.W.W.W.W.W.",
"W.W.W.W. .W.W. .W.W.W.W.W.W.W.W.W.W.W.W.W.W.W.W.W.W.W.W.W.W.W.W.W.W.W.W.W. . .W.W.W.W.W. . .W.W.W.W.W.W. .W.W. .W.W.W.W.W.W.W.W.W.W.W.W.W.W.W.W.W.W.W.W.W.W.W.W.",
"W.W.W.W. .W.W. .W.W.W.W.W.W.W.W.W.W.W.W.W.W.W.W.W.W.W.W.W. .W.W.W.W.W.W.W. . .W.W.W.W.W. . .W.W.W.W.W.W. .W.W. .W.W.W.W.W.W.W.W.W.W.W.W.W.W.W.W.W.W.W.W.W. .W.W.",
"W.W.W.W. . . . .W.W.W.W.W.W.W.W.W.W.W.W.W.W.W. .W.W.W.W.W.W.W.W.W.W.W.W.W.W.W.W.W.W.W.W.W.W.W.W.W.W.W.W. . . . .W.W.W.W.W.W.W.W.W.W.W.W.W.W.W. .W.W.W.W.W.W.W.W.",
"W.W.W.W.W.W.W.W.W.W.W.W.W.W.W.W.W.W.W.W.W.W.W.W.W.W.W.W.W.W.W.W.W.W.W.W.W.W.W.W.W.W.W.W.W.W.W.W.W.W.W.W.W.W.W.W.W.W.W.W.W.W.W.W.W.W.W.W.W.W.W.W.W.W.W.W.W.W.W.W."
};
