/* XPM */
static char *EndTile[] = {
/* columns rows colors chars-per-pixel */
"80 80 5 1 ",
"  c white",
". c #204631",
"X c #D7E894",
"o c #AEC440",
"O c #527F39",
/* pixels */
"  ............    ............    ............    ............    ............  ",
" .XXXXXXXXXXXX.  .XXXXXXXXXXXX.  .XXXXXXXXXXXX.  .XXXXXXXXXXXX.  .XXXXXXXXXXXX. ",
".XXoooooXooooXX..XXoooooXooooXX..XXoooooXooooXX..XXoooooXooooXX..XXoooooXooooXX.",
".XooooooooooooX..XooooooooooooX..XooooooooooooX..XooooooooooooX..XooooooooooooX.",
".Xoo..oooo..ooX..Xoo..oooo..ooX..Xoo..oooo..ooX..Xoo..oooo..ooX..Xoo..oooo..ooX.",
".Xo.oo.oo.XX.oX..Xo.oo.oo.XX.oX..Xo.oo.oo.XX.oX..Xo.oo.oo.XX.oX..Xo.oo.oo.XX.oX.",
".XooooooooooooX..XooooooooooooX..XooooooooooooX..XooooooooooooX..XooooooooooooX.",
".XooooooooooooX..XooooooooooooX..XooooooooooooX..XooooooooooooX..XooooooooooooX.",
".XooooooooooooX..XooooooooooooX..XooooooooooooX..XooooooooooooX..XooooooooooooX.",
".Xoo..oooo..ooX..Xoo..oooo..ooX..Xoo..oooo..ooX..Xoo..oooo..ooX..Xoo..oooo..ooX.",
".Xoo........ooX..Xoo........ooX..Xoo........ooX..Xoo........ooX..Xoo........ooX.",
".Xooo......oooX..Xooo......oooX..Xooo......oooX..Xooo......oooX..Xooo......oooX.",
".XooooooooooooX..XooooooooooooX..XooooooooooooX..XooooooooooooX..XooooooooooooX.",
".XXooo.ooooooXX..XXooo.ooooooXX..XXooo.ooooooXX..XXooo.ooooooXX..XXooo.ooooooXX.",
" .XXXXXXXXXXXX.  .XXXXXXXXXXXX.  .XXXXXXXXXXXX.  .XXXXXXXXXXXX.  .XXXXXXXXXXXX. ",
"  ............    ............    ............    ............    ............  ",
"  ............  OOOOOOOOOOOOOOOOOOOOOOOOOOOOOOOOOOOOOOOOOOOOOOOO  ............  ",
" .XXXXXXXXXXXX. OOOOOOOOOOOOOOOOOOOOOOOOOOOOOOOOOOOOOOOOOOOOOOOO .XXXXXXXXXXXX. ",
".XXoooooXooooXX.OOOOOOOOOOOOOOoOOoOOOOOOOoOOOOOOOoOOOOOOOOOOOOOO.XXoooooXooooXX.",
".XooooooooooooX.OOOOOOOOOOOOOOOOOOOOOOOOOOOOOOOOOOOOOOOOOOOOOOOO.XooooooooooooX.",
".Xoo..oooo..ooX.OOOOOOOOOOOOOOOOOOOOOOOOOOOOooOOOOOOOOOOOOOOOOOO.Xoo..oooo..ooX.",
".Xo.oo.oo.XX.oX.OOOOOOOOOOOOOOOOOOOOOOOOOOOooooOOOOOOOOOOOOOOOOO.Xo.oo.oo.XX.oX.",
".XooooooooooooX.OOOOOOOOOooOOOOOOOOOOooOOOOooooOOOOOOooOOOOOOOOO.XooooooooooooX.",
".XooooooooooooX.OOOOOOOOOXXOOOOOOOOOOXXOOOOOXXOOOOOOOXXOOOOOOOOO.XooooooooooooX.",
".XooooooooooooX.OOOOOOOOOOOOOOOOOOOOOOOOOOOOOOOOOOOOOOOOOOOOOOOO.XooooooooooooX.",
".Xoo..oooo..ooX.OOoOOOOOOOoooOOOOOOooooOOOOOOOOOOOOoooOOOOOOOoOO.Xoo..oooo..ooX.",
".Xoo........ooX.OOOOOOOOOoooooOOOOooooooOooOOoooOOoooooOOOOOOOOO.Xoo........ooX.",
".Xooo......oooX.OOOOOooOOooooooooooXooXooooooooooooooooOOooOOOOO.Xooo......oooX.",
".XooooooooooooX.OOOOoooXOooXXooooooXXXXooXXooXXXoooXXooOXoooOOOO.XooooooooooooX.",
".XXooo.ooooooXX.OOOOoooXOooXXoOooOoXXXXoOooOoXXXoOoXXooOXoooOOOO.XXooo.ooooooXX.",
" .XXXXXXXXXXXX. OOOOOooOOooooO.OO.OooooO.OO.OoooO.OooooOOooOOOOO .XXXXXXXXXXXX. ",
"  ............  OOOOOOOOOOoo........................ooOOOOOOOOOO  ............  ",
"  ............  OOOOOOOOOOOoooO.                .OoooOOOOOOOOOOO  ............  ",
" .XXXXXXXXXXXX. OOoOOOOOOOOooO..                ..OooOOOOOOOOoOO .XXXXXXXXXXXX. ",
".XXoooooXooooXX.OOOOOOOOOOooooO.                .OooooOOOOOOOOOO.XXoooooXooooXX.",
".XooooooooooooX.OOOOOOOOOooXXXo.                .oXXXooOOOOOOOOO.XooooooooooooX.",
".Xoo..oooo..ooX.OOOOOOOOOoooXXo.                .oXXoooOOOOOOOOO.Xoo..oooo..ooX.",
".Xo.oo.oo.XX.oX.OOOOOOoXOoooXXo.                .oXXoooOXoOOOOOO.Xo.oo.oo.XX.oX.",
".XooooooooooooX.OOOOOOoXOooXXXo.                .oXXXooOXoOOOOOO.XooooooooooooX.",
".XooooooooooooX.OOOOOOOOOOooooO.                .OooooOOOOOOOOOO.XooooooooooooX.",
".XooooooooooooX.OOOOOOOOOOOooO..                ..OooOOOOOOOOOOO.XooooooooooooX.",
".Xoo..oooo..ooX.OOoOOOOOOOooXoO.                .OoXooOOOOOOOoOO.Xoo..oooo..ooX.",
".Xoo........ooX.OOOOOOOOOOooXoO.                .OoXooOOOOOOOOOO.Xoo........ooX.",
".Xooo......oooX.OOOOOooOOOOooO..                ..OooOOOOooOOOOO.Xooo......oooX.",
".XooooooooooooX.OOOOoooXOOOoooO.                .OoooOOOXoooOOOO.XooooooooooooX.",
".XXooo.ooooooXX.OOOOoooXOOooXXo.                .oXXooOOXoooOOOO.XXooo.ooooooXX.",
" .XXXXXXXXXXXX. OOOOOooOOOooXXo.                .oXXooOOOooOOOOO .XXXXXXXXXXXX. ",
"  ............  OOOOOOOOOOooXXo.                .oXXooOOOOOOOOOO  ............  ",
"  ............  OOOOOOOOOOoo........................ooOOOOOOOOOO  ............  ",
" .XXXXXXXXXXXX. OOOOOooOOooooO.OO.OooooO.OO.OoooO.OooooOOooOOOOO .XXXXXXXXXXXX. ",
".XXoooooXooooXX.OOOOoooXOooXXoOooOoXXXXoOooOoXXXoOoXXooOXoooOOOO.XXoooooXooooXX.",
".XooooooooooooX.OOOOoooXOooXXooooOoXXXXooXXooXXXoooXXooOXoooOOOO.XooooooooooooX.",
".Xoo..oooo..ooX.OOOOOooOOooooooooooXooXooooooooooooooooOOooOOOOO.Xoo..oooo..ooX.",
".Xo.oo.oo.XX.oX.OOOOOOOOOoooooOOOoooooooOooOOoooOOoooooOOOOOOOOO.Xo.oo.oo.XX.oX.",
".XooooooooooooX.OOoOOOOOOOoooOOOOOOooooOOOOOOOOOOOOoooOOOOOOOoOO.XooooooooooooX.",
".XooooooooooooX.OOOOOOOOOOOOOOOOOOOOOOOOOOOOOOOOOOOOOOOOOOOOOOOO.XooooooooooooX.",
".XooooooooooooX.OOOOOOOOOXXOOOOOOOOOOooOOOOOXXOOOOOOOXXOOOOOOOOO.XooooooooooooX.",
".Xoo..oooo..ooX.OOOOOOOOOooOOOOOOOOOOooOOOOooooOOOOOOooOOOOOOOOO.Xoo..oooo..ooX.",
".Xoo........ooX.OOOOOOOOOOOOOOOOOOOOOOOOOOOooooOOOOOOOOOOOOOOOOO.Xoo........ooX.",
".Xooo......oooX.OOOOOOOOOOOOOOOOOOOOOOOOOOOOooOOOOOOOOOOOOOOOOOO.Xooo......oooX.",
".XooooooooooooX.OOOOOOOOOOOOOOOOOOOOOOOOOOOOOOOOOOOOOOOOOOOOOOOO.XooooooooooooX.",
".XXooo.ooooooXX.OOOOOOOOOOOOOOoOOoOOOOOOOoOOOOOOOoOOOOOOOOOOOOOO.XXooo.ooooooXX.",
" .XXXXXXXXXXXX. OOOOOOOOOOOOOOOOOOOOOOOOOOOOOOOOOOOOOOOOOOOOOOOO .XXXXXXXXXXXX. ",
"  ............  OOOOOOOOOOOOOOOOOOOOOOOOOOOOOOOOOOOOOOOOOOOOOOOO  ............  ",
"  ............    ............    ............    ............    ............  ",
" .XXXXXXXXXXXX.  .XXXXXXXXXXXX.  .XXXXXXXXXXXX.  .XXXXXXXXXXXX.  .XXXXXXXXXXXX. ",
".XXoooooXooooXX..XXoooooXooooXX..XXoooooXooooXX..XXoooooXooooXX..XXoooooXooooXX.",
".XooooooooooooX..XooooooooooooX..XooooooooooooX..XooooooooooooX..XooooooooooooX.",
".Xoo..oooo..ooX..Xoo..oooo..ooX..Xoo..oooo..ooX..Xoo..oooo..ooX..Xoo..oooo..ooX.",
".Xo.oo.oo.XX.oX..Xo.oo.oo.XX.oX..Xo.oo.oo.XX.oX..Xo.oo.oo.XX.oX..Xo.oo.oo.XX.oX.",
".XooooooooooooX..XooooooooooooX..XooooooooooooX..XooooooooooooX..XooooooooooooX.",
".XooooooooooooX..XooooooooooooX..XooooooooooooX..XooooooooooooX..XooooooooooooX.",
".XooooooooooooX..XooooooooooooX..XooooooooooooX..XooooooooooooX..XooooooooooooX.",
".Xoo..oooo..ooX..Xoo..oooo..ooX..Xoo..oooo..ooX..Xoo..oooo..ooX..Xoo..oooo..ooX.",
".Xoo........ooX..Xoo........ooX..Xoo........ooX..Xoo........ooX..Xoo........ooX.",
".Xooo......oooX..Xooo......oooX..Xooo......oooX..Xooo......oooX..Xooo......oooX.",
".XooooooooooooX..XooooooooooooX..XooooooooooooX..XooooooooooooX..XooooooooooooX.",
".XXooo.ooooooXX..XXooo.ooooooXX..XXooo.ooooooXX..XXooo.ooooooXX..XXooo.ooooooXX.",
" .XXXXXXXXXXXX.  .XXXXXXXXXXXX.  .XXXXXXXXXXXX.  .XXXXXXXXXXXX.  .XXXXXXXXXXXX. ",
"  ............    ............    ............    ............    ............  "
};
