/* XPM */
static char *Start[] = {
/* columns rows colors chars-per-pixel */
"80 80 59 1 ",
"  c #204631",
". c #214732",
"X c #AEC440",
"o c #D7E894",
"O c #527F39",
"+ c #ADC440",
"@ c #D6E894",
"# c #214731",
"$ c #214631",
"% c white",
"& c #224732",
"* c #224832",
"= c #224731",
"- c #224831",
"; c #C7DA74",
": c #BDD15F",
"> c #D7E893",
", c #ADC340",
"< c #D6E793",
"1 c #C6DA74",
"2 c #D6E893",
"3 c #C6D974",
"4 c #658356",
"5 c #79953A",
"6 c #74983C",
"7 c #74993C",
"8 c #8BAA3D",
"9 c #75993C",
"0 c #335B34",
"q c #78943A",
"w c #73983B",
"e c #537F39",
"r c #335C34",
"t c #557537",
"y c #8BA93D",
"u c #759A3C",
"i c #517E39",
"p c #538039",
"a c #8CAA3D",
"s c #AEC441",
"d c #769A3C",
"f c #769A3D",
"g c #AFC441",
"h c #577738",
"j c #78943B",
"k c #D6E794",
"l c #BDD160",
"z c #BCD15F",
"x c #D5E793",
"c c #BCD05F",
"v c #D5E693",
"b c #ACC240",
"n c #C5D973",
"m c #D4E693",
"M c #648256",
"N c #77933A",
"B c #224733",
"V c #234833",
"C c #234934",
/* pixels */
"                                         .........                              ",
"XXXooooXXXXooooXXXXooooXXXXooooXXXXo XOO OO+ @XXXXooooXXXXooooXXXXooooXXXXooooXX",
"OOOOXXXXOOOOXXXXOOOOXXXXOOOOXXXXOOO XOOO OOO+#XOOOOXXXXOOOOXXXXOOOOXXXXOOOOXXXXO",
"XOOOOXXXXOOOOXXXXOOOOXXXXOOOOXXXXOO   XO OX   XXOOOOXXXXOOOOXXXXOOOOXXXXOOOOXXXX",
"XXOOOOXXXXOOOOXXXXOOOOXXXXOOOOXXXXOOO XO OX OXXXXOOOOXXXXOOOOXXXXOOOOXXXXOOOOXXX",
"XXXOOOOXXXXOOOOXXXXOOOOXXXXOOOOXXXXOO XO OX OOXXXXOOOOXXXXOOOOXXXXOOOOXXXXOOOOXX",
"XXXXOOOOXXXXOOOOXXXXOOOOXXXXOOOOXXXXO XO OX OOOXXXXOOOOXXXXOOOOXXXXOOOOXXXXOOOOX",
"OXXXXOOOOXXXXOOOOXXXXOOOOXXXXOOOOXXXX XO OX OOOOXXXXOOOOXXXXOOOOXXXXOOOOXXXXOOOO",
"OOXXXXOOOOXXXXOOOOXXXXOOOOXXXXOOOOXXX XO OX XOOOOXXXXOOOOXXXXOOOOXXXXOOOOXXXXOOO",
"OOOXXXXOOOOXXXXOOOOXXXXOOOOXXXXOOOOXX XO OX XXOOOOXXXXOOOOXXXXOOOOXXXXOOOOXXXXOO",
"OOOOXXXXOOOOXXXXOOOOXXXXOOOOXXXXOOOOX XO OX XXXOOOOXXXXOOOOXXXXOOOOXXXXOOOOXXXXO",
"XOOOOXXXXOOOOXXXXOOOOXXXXOOOOXXXXOOOO XO OX XXXXOOOOXXXXOOOOXXXXOOOOXXXXOOOOXXXX",
"XXOOOOXXXXOOOOXXXXOOOOXXXXOOOOXXXXO   XO OX   XXXOOOOXXXXOOOOXXXXOOOOXXXXOOOOXXX",
"XXXOOOOXXXXOOOOXXXXOOOOXXXXOOOOXXXX XOOO OOOX XXXXOOOOXXXXOOOOXXXXOOOOXXXXOOOOXX",
"ooooXXXXooooXXXXooooXXXXooooXXXXoooo XOO OOX$+XooooXXXXooooXXXXooooXXXXooooXXXXo",
"                                                                              ..",
"                                                                                ",
" OOOOOOOOOOOOOO      oooooooooooXoooXoooXoooXoooooooooooooo      OOOOOOOOOOOOOO ",
" OOXXXXXXXXXXOO    ooXXXXOoXXXXXOXXXOXXXOXXXOXXXXXXXXoOXXXXoo    OOXXXXXXXXXXOO ",
" XO          OX   oXXXXXXOoXXXXXOXXXOXXXOXXXOXXXXXXXXoOXXXXXXo   XO          OX ",
"  X OOOXXXXO X    oXXXXXXOoXXXXXOXXXOXXXOXXXOXXXXXXXXoOXXXXXXo    X OOOXXXXO X  ",
" o  OOXXXXOO  o  oXXXXXXXOoXXXXXOXXXOXXXOXXXOXXXXXXXXoOXXXXXXXo  o  OOXXXXOO  o ",
" XOOOXXXXOOOOXo  oXXXXXXXOoXXXXXOXXXOXXXOXXXOXXXXXXXXoOXXXXXXXo  XOOOXXXXOOOOXo ",
" XOOXXXXOOOOXXo  oXXXXXXXOoXXXXXOXXXOXXXOXXXOXXXXXXXXoOXXXXXXXo  XOOXXXXOOOOXXo ",
" XOXXXXOOOOXXXo  oXXXXXXXOoXXXXXOXXXOXXXOXXXOXXXXXXXXoOXXXXXXXo  XOXXXXOOOOXXXo ",
" XXXXXOOOOXXXXX  oOOOOOOOOoXXXXXOXXXOXXXOXXXOXXXXXXXXoOOOOOOOOo  XXXXXOOOOXXXXX ",
" oXXXOOOOXXXXOX  oooooooooOoXXXXOXXXOXXXOXXXOXXXXXXXoOooooooooo  oXXXOOOOXXXXOX ",
" oXXOOOOXXXXOOX  oXXXXXXXXoOoXXXOXXXOXXXOXXXOXXXXXXoOoXXXXXXXXo  oXXOOOOXXXXOOX ",
" oXOOOOXXXXOOOX  oXXXXXXXXXoOoXXOXXXOXXXOXXXOXXXXXoOoXXXXXXXXXo  oXOOOOXXXXOOOX ",
" oOOOOXXXXOOOOo  oXXXXXXXXXXoOoXOXXXOXXXOXXXOXXXXoOoXXXXXXXXXXo  oOOOOXXXXOOOOo ",
" XOOOXXXXOOOOXo  oXXXXXXXXXXXoOoXoooXoooXoooXooooOoXXXXXXXXXXXo  XOOOXXXXOOOOXo ",
" XOOXXXXOOOOXXo  oXXXXXXXXXXXXo                  oXXXXXXXXXXXXo  XOOXXXXOOOOXXo ",
" XOXXXXOOOOXXXo  oXXXXXXXXXXXXo %%%%%%%%%%%%%%%% oXXXXXXXXXXXXo  XOXXXXOOOOXXXo ",
" XXXXXOOOOXXXXX  oXXXXXXXXXXXXo %%%%%%%%%%%%%%%% oXXXXXXXXXXXXo  XXXXXOOOOXXXXX ",
" oXXXOOOOXXXXOX  oXXXXXXXXXXXXo %%%%%%%%%%%%%%%% oXXXXXXXXXXXXo  oXXXOOOOXXXXOX ",
" oXXOOOOXXXXOOX  XOOOOOOOOOOOOX %%%%%%%%%%%%%%%% XOOOOOOOOOOOOX  oXXOOOOXXXXOOX ",
" oXOOOOXXXXOOOX  oXXXXXXXXXXXXo %%%%%%%%%%%%%%%% oXXXXXXXXXXXXo  oXOOOOXXXXOOOX ",
" oOOOOXXXXOOOOo  oXXXXXXXXXXXXo %%%%%%%%%%%%%%%% oXXXXXXXXXXXXo  oOOOOXXXXOOOOo ",
" XOOOXXXXOOOOXo  oXXXXXXXXXXXXo %%%%%%%%%%%%%%%% oXXXXXXXXXXXXo  XOOOXXXXOOOOXo ",
" XOOXXXXOOOOXXo  XOOOOOOOOOOOOX %%%%%%%%%%%%%%%% XOOOOOOOOOOOOX  XOOXXXXOOOOXXo ",
" XOXXXXOOOOXXXo  oXXXXXXXXXXXXo %%%%%%%%%%%%%%%% oXXXXXXXXXXXXo  XOXXXXOOOOXXXo ",
" XXXXXOOOOXXXXX  oXXXXXXXXXXXXo %%%%%%%%%%%%%%%% oXXXXXXXXXXXXo  XXXXXOOOOXXXXX ",
" oXXXOOOOXXXXOX  oXXXXXXXXXXXXo %%%%%%%%%%%%%%%% oXXXXXXXXXXXXo  oXXXOOOOXXXXOX ",
" oXXOOOOXXXXOOX  XOOOOOOOOOOOOX %%%%%%%%%%%%%%%% XOOOOOOOOOOOOX  oXXOOOOXXXXOOX ",
" oXOOOOXXXXOOOX  oXXXXXXXXXXXXo %%%%%%%%%%%%%%%% oXXXXXXXXXXXXo  oXOOOOXXXXOOOX ",
" oOOOOXXXXOOOOo  oXXXXXXXXXXXXo %%%%%%%%%%%%%%%% oXXXXXXXXXXXXo  oOOOOXXXXOOOOo ",
" XOOOXXXXOOOOXo  oXXXXXXXXXXXXo %%%%%%%%%%%%%%%% oXXXXXXXXXXXXo  XOOOXXXXOOOOXo ",
" XOOXXXXOOOOXXo  XOOOOOOOOOOOOX %%%%%%%%%%%%%%%% XOOOOOOOOOOOOX  XOOXXXXOOOOXXo ",
" XOXXXXOOOOXXXo  oXXXXXXXXXXXXo                  oXXXXXXXXXXXXo  XOXXXXOOOOXXXo ",
" XXXXXOOOOXXXXX  oXXXXXXXXXXXoOoXoooXoooXoooXooooOoXXXXXXXXXXXo  XXXXXOOOOXXXXX ",
" oXXXOOOOXXXXOX  oXXXXXXXXXXoOoXOXXXOXXXOXXXOXXXXoOoXXXXXXXXXXo  oXXXOOOOXXXXOX ",
" oXXOOOOXXXXOOX  oXXXXXXXXXoOoXXOXXXOXXXOXXXOXXXXXoOoXXXXXXXXXo  oXXOOOOXXXXOOX ",
" oXOOOOXXXXOOOX  oXXXXXXXXoOoXXXOXXXOXXXOXXXOXXXXXXoOoXXXXXXXXo  oXOOOOXXXXOOOX ",
" oOOOOXXXXOOOOo  oooooooooOoXXXXOXXXOXXXOXXXOXXXXXXXoOooooooooo  oOOOOXXXXOOOOo ",
" XOOOXXXXOOOOXo  oOOOOOOOOoXXXXXOXXXOXXXOXXXOXXXXXXXXoOOOOOOOOo  XOOOXXXXOOOOXo ",
" XOOXXXXOOOOXXo  oXXXXXXXOoXXXXXOXXXOXXXOXXXOXXXXXXXXoOXXXXXXXo  XOOXXXXOOOOXXo ",
" XOXXXXOOOOXXXo  oXXXXXXXOoXXXXXOXXXOXXXOXXXOXXXXXXXXoOXXXXXXXo  XOXXXXOOOOXXXo ",
" XXXXXOOOOXXXXX  oXXXXXXXOoXXXXXOXXXOXXXOXXXOXXXXXXXXoOXXXXXXXo  XXXXXOOOOXXXXX ",
" o  XOOOOXXX  X  oXXXXXXXOoXXXXXOXXXOXXXOXXXOXXXXXXXXoOXXXXXXXo  o  XOOOOXXX  X ",
"  X OOOOXXXX X    oXXXXXXOoXXXXXOXXXOXXXOXXXOXXXXXXXXoOXXXXXXo    X OOOOXXXX X  ",
" XO          OX   oXXXXXXOoXXXXXOXXXOXXXOXXXOXXXXXXXXoOXXXXXXo   XO          OX ",
" OOXXXXXXXXXXOO    ooXXXXOoXXXXXOXXXOXXXOXXXOXXXXXXXXoOXXXXoo    OOXXXXXXXXXXOO ",
" OOOOOOOOOOOOOO      oooooooooooXoooXoooXoooXoooooooooooooo      OOOOOOOOOOOOOO ",
"                                                                                ",
"   $########...####.&**=#==*****---*.###                                        ",
"XXX;ooo:XX+;>>>:X,,;<>>:+,,1<>2:,,,3456O OOX oXXXXooooXXXXooooXXXXooooXXXXooooXX",
"7OOO8XXX9OOO8XXX9OOO8XXX9OOO8XXX9OO0qwee OOOX XOOOOXXXXOOOOXXXXOOOOXXXXOOOOXXXXO",
"X9OOO8XXX9OOO8XXX9OOO8XXX9OOO8XXX9Or# 57 OX   XXOOOOXXXXOOOOXXXXOOOOXXXXOOOOXXXX",
"XX9OOO8XXX9OOO8XXX9OOO8XXX9OOO8XXX9OO057 OX OXXXXOOOOXXXXOOOOXXXXOOOOXXXXOOOOXXX",
"XXX9OOO8XXX9OOO8XXX9OOO8XXX9OOO8XXX9O057 OX OOXXXXOOOOXXXXOOOOXXXXOOOOXXXXOOOOXX",
"8XXX9OOO8XXX9OOO8XXX9OOO8XXX9OOO8XXX9r57 OX OOOXXXXOOOOXXXXOOOOXXXXOOOOXXXXOOOOX",
"O8XXX9OOO8XXX9OOO8XXX9OOO8XXX9OOO8XXXt57 OX OOOOXXXXOOOOXXXXOOOOXXXXOOOOXXXXOOOO",
"OO8XXX9OOO8XXX9OOO8XXX9OOO8XXX9OOO8XXt59 OX XOOOOXXXXOOOOXXXXOOOOXXXXOOOOXXXXOOO",
"OOO8XXX9OOO8XXX9OOO8XXX9OOO8XXX9OOOyXt59 OX XXOOOOXXXXOOOOXXXXOOOOXXXXOOOOXXXXOO",
"9OOO8XXX9OOO8XXX9OOO8XXX9OOO8XXX9OOOyt59 OX XXXOOOOXXXXOOOOXXXXOOOOXXXXOOOOXXXXO",
"X9OOO8XXX9OOO8XXX9OOO8XXX9OOO8XXXuOOi059 OX XXXXOOOOXXXXOOOOXXXXOOOOXXXXOOOOXXXX",
"XX9OOO8XXX9OOO8XXX9OOO8XXX9OOOyXXXur##q7 OX   XXXOOOOXXXXOOOOXXXXOOOOXXXXOOOOXXX",
"XXX9OOO8XXX9peeaXssdpppasssfpppasgghj9eO OOOX XXXXOOOOXXXXOOOOXXXXOOOOXXXXOOOOXX",
";o@kl,,,;<<<z,,,3<xxc,,,3vvvcbbbnvvmMNwi OOX XXooooXXXXooooXXXXooooXXXXooooXXXXo",
"...........BBBBBBBBBBBBVVVVVVVVVVVVCCCCC                                        "
};
