/* XPM */
static char *WalkTile1SX[] = {
/* columns rows colors chars-per-pixel */
"80 80 14 1 ",
"  c #AEC440",
". c #527F39",
"X c #060608",
"o c #71413B",
"O c #D7E894",
"+ c #422433",
"@ c #E9B5A3",
"# c white",
"$ c #204631",
"% c #F9A31B",
"& c #4A5462",
"* c #242234",
"= c #B9BFFB",
"- c #5B3138",
/* pixels */
"         .               ....                            .               ....   ",
"   .                     .  .      ..     ..       .                     .  .   ",
"                         .  .      ..     ..                             .  .   ",
"            ....         ....                               ....         ....   ",
"            .  .     ...                                    .  .     ...        ",
".           .  .     ...                      ...           .  .     ...        ",
".           ....     ...       ...            . .           ....     ...       .",
".                     XXXXXXX  . .            ...                              .",
"       ..        ..  XoooooooX ...                     ..        ..            .",
"  .    ..        .. XoooooooooX   .     .         .    ..        ..      .      ",
"                   XooooooooooX                                                 ",
"O   OO       OO   OXX++ooXooooX OO   OO  OO    OO   OO       OO   OO   OO  OO   ",
"OOOOOOOOOOOOOOOOOOOX@XX+ooXooXOOOOOOOOOOOOOOOOOOOOOOOOOOOOOOOOOOOOOOOOOOOOOOOOOO",
".OOO..OOOOOOO..OOO.X@@XX+oXoXOOO..OOO..OO..OOOO..OOO..OOOOOOO..OOO..OOO..OO..OOO",
"#...##.......##...#X@@@@X+oXoX..##...##..##....##...##.......##...##...##..##...",
"..................X+Xoo@X+oooX....................................OO            ",
"          .  OO..$X+X@ooX++oooX$$$$$$$$$$$$$$$$$$$$$$$$$$$$$$$$.#.OO        ..  ",
"             OO..$X++XooX++oooX..............................$$..OO         ..  ",
"            OO.#.$X++XoX++++++X                            ...$..OO             ",
"            OO.#...XX+X++++++X                              .....OO             ",
"  ..         OO....X+X++XXXXX      OOOO            OO        ....OO    ...      ",
"  ..         OO...X+XXXXoooooX    OOOOOO          OOOO     O  ..#.OO   . .      ",
"          .  OO...X%X%+ooooooX....      ..........    .....   ..#.OO   ...      ",
"       ...  OO.#..X%X%+oooooooX...      ...........  .......  ...OO             ",
"       . .  OO.#.X+%X%+oooooooX...      ..................... ...OO  .          ",
"       ...   OO..X+%X%+oooooooX....    ...................... ...OO          .  ",
"             OO..X+%X%+ooooooooX............................. ..#.OO            ",
"             OO..X+%X%+ooooooooX............................. ..#.OO            ",
" ....       OO.#.X+%X%+ooooooooX...........  .......... O.... ...OO             ",
" .  .       OO.#.X+%X%+oooooooooX..........  ..........  .... ...OO  ..         ",
" .  .        OO..X%XX%+oooooooooX............................ ...OO  ..         ",
" ....     .  OO..X%XX%+oooooooooX............................ ...OO           . ",
"            OO.#.X%XX%+oooooooooX............................ ...OO             ",
"     ...    OO.#.X%XX%+oooooooooX............................ ...OO             ",
"     ...     OO..X%XX%++oooooooX............................. ...OO     ....    ",
"     ...     OO..X%XX%+++oooooXX............................. ..#.OO    .  .    ",
"             OO..X%XX%++++++XXX............................   ..#.OO    .  .    ",
"            OO.#.X%XX%+++XXX++X...........................   O...OO     ....    ",
"         .. OO.#..X&XXXXX*X++X............................   O...OO             ",
"         ..  OO...X&X=X**X+++X.............................   ...OO  ..         ",
"             OO...XX=X-X*X++X................................ ..#.OO ..         ",
"    ....     OO...X=XXXXX++XX................................ ..#.OO            ",
"    .  .    OO.#..XX+X++++X+X...................... ......... ...OO             ",
"    .  .    OO.#..XXX++++XXXX................................ ...OO     ...     ",
"    ....     OO...X&&XX+XX**X................................ ...OO     ...     ",
"             OO..X&&&&&X-X**X................................ ..#.OO    ...     ",
"             OO..X&&&&&*X-X*&X............................... ..#.OO            ",
" .           OO..X&&&&&*X-X*&X............................... ...OO  .     .... ",
"         ..  OO..X&&&&***X-X&X............................... ...OO        .  . ",
"         ..  OO..X&&&&***X-X&X............................... ..#.OO       .  . ",
"             OO.X&&&&****XX-XX.............  ..........  .... ..#.OO       .... ",
"            OO.#X&&&&***X*X-XX.............  .......... O.... ...OO             ",
"            OO.#X&&&&***X**X-X............................... ...OO             ",
"  .          OO.X&&&&***X**X-XX.............................. ...OO   ...       ",
"          .  OO.X&&&***X****X-X....    ...................... ..#.OO  . .       ",
"             OO.X&&&***X****X-X...      ..................... ..#.OO  ...       ",
"      ...   OO.#X&&&***X*****X-X..      ...........  .......  ...OO  .          ",
"      . .   OO.#.X&&&********X-X..      ..........    .....   ...OO         ..  ",
"      ...    OO..X&&&********&X-X OOOOOO          OOOO     O  ...OO         ..  ",
"             OO..X&&&********&X-X  OOOO            OO        ...#.OO            ",
"             OO...X&&********&&X-X                          ....#.OO            ",
"  ..         OO..$X&&&********&X-X                         ...$..OO             ",
"  ..        OO.#.$X&&&********&XX-X..........................$$..OO  .          ",
"            OO....X&&&********&&X-X.............................................",
"#...##..##...##...#X&&XX******&&XX....##..##...##...##..##...##...##.......##...",
".OOO..OO..OOO..OOO.X&X+XX******&X.OOOO..OO..OOO..OOO..OO..OOO..OOO..OOOOOOO..OOO",
"OOOOOOOOOOOOOOOOOOOXXX+X*X*****&XOOOOOOOOOOOOOOOOOOOOOOOOOOOOOOOOOOOOOOOOOOOOOOO",
"O   OO  OO   OO   OOX+++XX*****&&X    OO  OO   OO   OO  OO   OO   OO       OO   ",
"                   X++++X*X*****&X                                              ",
"       .      .. XX+++++X*X***XXXX      .     .        .      ..        ..    . ",
"..            ..X++++XXX&***XX+++X             ...            ..        ..      ",
" .              XXXXX  X&XXX+++++X.            . .                              ",
"..       ...     ....  XXX++++++XX.            ...       ...     ....           ",
"         ...     .  .           ...                      ...     .  .           ",
"         ...     .  .                                    ...     .  .           ",
"    ....         ....                               ....         ....           ",
"    .  .                             ..     ..      .  .                        ",
"    .  .                     .       ..     ..      .  .                     .  ",
"    ....               .                            ....               .        ",
"                                                                                "
};
