/* XPM */
static char *WalkTileSX[] = {
/* columns rows colors chars-per-pixel */
"80 80 14 1 ",
"  c #AEC440",
". c #527F39",
"X c #060608",
"o c #71413B",
"O c #D7E894",
"+ c #422433",
"@ c #E9B5A3",
"# c white",
"$ c #204631",
"% c #F9A31B",
"& c #242234",
"* c #4A5462",
"= c #B9BFFB",
"- c #5B3138",
/* pixels */
"         .               ....                            .               ....   ",
"   .                     .  .      ..     ..       .                     .  .   ",
"                         .  .      ..     ..                             .  .   ",
"            ....         ....                               ....         ....   ",
"            .  .     ...                                    .  .     ...        ",
".           .  .     ...                      ...           .  .     ...        ",
".           ....     ...       ...            . .           ....     ...       .",
".                              . . XXXXXXX    ...                              .",
"       ..        ..            ...XoooooooXX           ..        ..            .",
"  .    ..        ..      .       XooooooooooX     .    ..        ..      .      ",
"                                XoooooooooooX                                   ",
"O   OO       OO   OO   OO  OO   XXXX+ooXooXX   OO   OO       OO   OO   OO  OO   ",
"OOOOOOOOOOOOOOOOOOOOOOOOOOOOOOOOX@XXX+ooXooXOOOOOOOOOOOOOOOOOOOOOOOOOOOOOOOOOOOO",
".OOO..OOOOOOO..OOO..OOO..OO..OOOX@@X@X+oXoXOOOO..OOO..OOOOOOO..OOO..OOO..OO..OOO",
"#...##.......##...##...##..##...X@@@@@XooXX....##...##.......##...##...##..##...",
"................................XXoo@@X+ooX.......................OO            ",
"          .  OO..$$$$$$$$$$$$$$$XX@oooX+oooX$$$$$$$$$$$$$$$$$$$.#.OO        ..  ",
"             OO..$$.............X+XoooX++ooX.................$$..OO         ..  ",
"            OO.#.$...           X+XooX++++oX               ...$..OO             ",
"            OO.#....OOO     O   X++XX+++++X                 .....OO             ",
"  ..         OO....OOOOO        X+X++XXXXXX        OO        ....OO    ...      ",
"  ..         OO... OOOOO       X+XXXXooooooX      OOOO     O  ..#.OO   . .      ",
"          .  OO... OO   .......X%X%+oooooooX......    .....   ..#.OO   ...      ",
"       ...  OO.#..     ........X%X%+ooooooooX......  .......  ...OO             ",
"       . .  OO.#.. .....O ....X+%X%+ooooooooX................ ...OO  .          ",
"       ...   OO... .....  ....X+%X%+ooooooooX................ ...OO          .  ",
"             OO... ...........X+%X%+oooooooooX............... ..#.OO            ",
"             OO... ...........X+%X%+oooooooooX............... ..#.OO            ",
" ....       OO.#.. ...........X+%X%+oooooooooX......... O.... ...OO             ",
" .  .       OO.#.. ...........X+%X%+ooooooooooX........  .... ...OO  ..         ",
" .  .        OO... ...........X%X&X%+oooooooooX.............. ...OO  ..         ",
" ....     .  OO... ...........X%X&X%+oooooooooX.............. ...OO           . ",
"            OO.#.. ...........X%X&X%+oooooooooX.............. ...OO             ",
"     ...    OO.#..    ........X%X&X%+ooooooooXX.............. ...OO             ",
"     ...     OO...O    .......X%XXX%++ooooooX*X.............. ...OO     ....    ",
"     ...     OO...O    .......X%XXX%+++ooooXX*X.............. ..#.OO    .  .    ",
"             OO...O    .......X%X&X%+++++XX++X.............   ..#.OO    .  .    ",
"            OO.#..    ........X%X&X%++XXXX+++X............   O...OO     ....    ",
"         .. OO.#.. ............X*&&XXXX&&X++X.............   O...OO             ",
"         ..  OO... ............X***X=X&&X+++X..............   ...OO  ..         ",
"             OO... ............X**X=X-X*X++X................. ..#.OO ..         ",
"    ....     OO... ............XXX=XXXXX++X.................. ..#.OO            ",
"    .  .    OO.#.. ............X++X+X++++XX........ ......... ...OO             ",
"    .  .    OO.#.. .....O .....XXXXX++++XXX.................. ...OO     ...     ",
"    ....     OO... .....  .....X****XX+XX**X................. ...OO     ...     ",
"             OO... ............X&&****X-X**X................. ..#.OO    ...     ",
"             OO... ............X&&&****X-X*X................. ..#.OO            ",
" .           OO... ............X&&X****X-X&X................. ...OO  .     .... ",
"         ..  OO... ............X&&X*****X-XX................. ...OO        .  . ",
"         ..  OO... ............X&&X&****X-XX................. ..#.OO       .  . ",
"             OO... ............X*&X&*****X-X ..........  .... ..#.OO       .... ",
"            OO.#.. ............X*&X&*****X-X .......... O.... ...OO             ",
"            OO.#.. ............X*&X&****&XX-X................ ...OO             ",
"  .          OO... ............X*&X&****&XX-X................ ...OO   ...       ",
"          .  OO... .....  .....X**&X&**&X&XX-X............... ..#.OO  . .       ",
"             OO... .....O .....X**&X&**&X&XX-X............... ..#.OO  ...       ",
"      ...   OO.#..     ........X**&X&**X&*X.X-X....  .......  ...OO  .          ",
"      . .   OO.#.. OO   .......X**&X&**X&*X.X-X...    .....   ...OO         ..  ",
"      ...    OO... OOOOO        X*&X&**X&**X X-X  OOOO     O  ...OO         ..  ",
"             OO....OOOOO        X**X&**X&**X X-X   OO        ...#.OO            ",
"             OO.....OOO     O   X**&X&*X&**X  X-X           ....#.OO            ",
"  ..         OO..$...           X**&X&**&**X  X-X          ...$..OO             ",
"  ..        OO.#.$$..............X*&X&******X..X-X...........$$..OO  .          ",
"            OO...................X*&X&&*****X..X-X..............................",
"#...##..##...##...##.......##...#X**&X&&****XX.#X...##..##...##...##.......##...",
".OOO..OO..OOO..OOO..OOOOOOO..OOO.X**&X&&****XXO..OOO..OO..OOO..OOO..OOOOOOO..OOO",
"OOOOOOOOOOOOOOOOOOOOOOOOOOOOOOOOOX**&X&&&**X+XOOOOOOOOOOOOOOOOOOOOOOOOOOOOOOOOOO",
"O   OO  OO   OO   OO       OO   OOX*&&&&&*XX++XOO   OO  OO   OO   OO       OO   ",
"                                  X*&&&&&&&X++X                                 ",
"       .      ..        ..    .   X**&&&&&&X+++X       .      ..        ..    . ",
"..            ..        ..        XXX&&&&&X++++X..            ..        ..      ",
" .                              XX+++X&&&X+++XX. .                              ",
"..       ...     ....          X++++++X&X++XX  ...       ...     ....           ",
"         ...     .  .           ...                      ...     .  .           ",
"         ...     .  .                                    ...     .  .           ",
"    ....         ....                               ....         ....           ",
"    .  .                             ..     ..      .  .                        ",
"    .  .                     .       ..     ..      .  .                     .  ",
"    ....               .                            ....               .        ",
"                                                                                "
};
