/* XPM */
static char *WalkTiles[] = {
/* columns rows colors chars-per-pixel */
"80 80 5 1 ",
"  c #AEC440",
". c #527F39",
"X c #D7E894",
"o c white",
"O c #204631",
/* pixels */
"         .               ....                            .               ....   ",
"   .                     .  .      ..     ..       .                     .  .   ",
"                         .  .      ..     ..                             .  .   ",
"            ....         ....                               ....         ....   ",
"            .  .     ...                                    .  .     ...        ",
".           .  .     ...                      ...           .  .     ...        ",
".           ....     ...       ...            . .           ....     ...       .",
".                              . .            ...                              .",
"       ..        ..            ...                     ..        ..            .",
"  .    ..        ..      .        .     .         .    ..        ..      .      ",
"                                                                                ",
"X   XX       XX   XX   XX  XX   XX   XX  XX    XX   XX       XX   XX   XX  XX   ",
"XXXXXXXXXXXXXXXXXXXXXXXXXXXXXXXXXXXXXXXXXXXXXXXXXXXXXXXXXXXXXXXXXXXXXXXXXXXXXXXX",
".XXX..XXXXXXX..XXX..XXX..XX..XXX..XXX..XX..XXXX..XXX..XXXXXXX..XXX..XXX..XX..XXX",
"o...oo.......oo...oo...oo..oo...oo...oo..oo....oo...oo.......oo...oo...oo..oo...",
"..................................................................XX            ",
"          .  XX..OOOOOOOOOOOOOOOOOOOOOOOOOOOOOOOOOOOOOOOOOOOOOO.o.XX        ..  ",
"             XX..OO..........................................OO..XX         ..  ",
"            XX.o.O...                                      ...O..XX             ",
"            XX.o....XXX     X                               .....XX             ",
"  ..         XX....XXXXX           XXXX            XX        ....XX    ...      ",
"  ..         XX... XXXXX          XXXXXX          XXXX     X  ..o.XX   . .      ",
"          .  XX... XX   ..........      ..........    .....   ..o.XX   ...      ",
"       ...  XX.o..     ...........      ...........  .......  ...XX             ",
"       . .  XX.o.. .....X ........      ..................... ...XX  .          ",
"       ...   XX... .....  .........    ...................... ...XX          .  ",
"             XX... .......................................... ..o.XX            ",
"             XX... .......................................... ..o.XX            ",
" ....       XX.o.. ........................  .......... X.... ...XX             ",
" .  .       XX.o.. ........................  ..........  .... ...XX  ..         ",
" .  .        XX... .......................................... ...XX  ..         ",
" ....     .  XX... .......................................... ...XX           . ",
"            XX.o.. .......................................... ...XX             ",
"     ...    XX.o..    ....................................... ...XX             ",
"     ...     XX...X    ...................................... ...XX     ....    ",
"     ...     XX...X    ...................................... ..o.XX    .  .    ",
"             XX...X    ....... ............................   ..o.XX    .  .    ",
"            XX.o..    ....................................   X...XX     ....    ",
"         .. XX.o.. .......................................   X...XX             ",
"         ..  XX... ........................................   ...XX  ..         ",
"             XX... .......................................... ..o.XX ..         ",
"    ....     XX... .......................................... ..o.XX            ",
"    .  .    XX.o.. ................................ ......... ...XX             ",
"    .  .    XX.o.. .....X ................................... ...XX     ...     ",
"    ....     XX... .....  ................................... ...XX     ...     ",
"             XX... .......................................... ..o.XX    ...     ",
"             XX... .......................................... ..o.XX            ",
" .           XX... .......................................... ...XX  .     .... ",
"         ..  XX... .......................................... ...XX        .  . ",
"         ..  XX... .......................................... ..o.XX       .  . ",
"             XX... ........................  ..........  .... ..o.XX       .... ",
"            XX.o.. ........................  .......... X.... ...XX             ",
"            XX.o.. .......................................... ...XX             ",
"  .          XX... .......................................... ...XX   ...       ",
"          .  XX... .....  .........    ...................... ..o.XX  . .       ",
"             XX... .....X ........      ..................... ..o.XX  ...       ",
"      ...   XX.o..     ...........      ...........  .......  ...XX  .          ",
"      . .   XX.o.. XX   ..........      ..........    .....   ...XX         ..  ",
"      ...    XX... XXXXX          XXXXXX          XXXX     X  ...XX         ..  ",
"             XX....XXXXX           XXXX            XX        ...o.XX            ",
"             XX.....XXX     X                               ....o.XX            ",
"  ..         XX..O...                                      ...O..XX             ",
"  ..        XX.o.OO..........................................OO..XX  .          ",
"            XX..................................................................",
"o...oo..oo...oo...oo.......oo...oo....oo..oo...oo...oo..oo...oo...oo.......oo...",
".XXX..XX..XXX..XXX..XXXXXXX..XXX..XXXX..XX..XXX..XXX..XX..XXX..XXX..XXXXXXX..XXX",
"XXXXXXXXXXXXXXXXXXXXXXXXXXXXXXXXXXXXXXXXXXXXXXXXXXXXXXXXXXXXXXXXXXXXXXXXXXXXXXXX",
"X   XX  XX   XX   XX       XX   XX    XX  XX   XX   XX  XX   XX   XX       XX   ",
"                                                                                ",
"       .      ..        ..    .         .     .        .      ..        ..    . ",
"..            ..        ..                     ...            ..        ..      ",
" .                              ...            . .                              ",
"..       ...     ....           . .            ...       ...     ....           ",
"         ...     .  .           ...                      ...     .  .           ",
"         ...     .  .                                    ...     .  .           ",
"    ....         ....                               ....         ....           ",
"    .  .                             ..     ..      .  .                        ",
"    .  .                     .       ..     ..      .  .                     .  ",
"    ....               .                            ....               .        ",
"                                                                                "
};
