/* XPM */
static char *WalkTile1DX[] = {
/* columns rows colors chars-per-pixel */
"80 80 14 1 ",
"  c #AEC440",
". c #527F39",
"X c #060608",
"o c #71413B",
"O c #422433",
"+ c #D7E894",
"@ c #E9B5A3",
"# c white",
"$ c #204631",
"% c #F9A31B",
"& c #242234",
"* c #4A5462",
"= c #B9BFFB",
"- c #5B3138",
/* pixels */
"         .               ....                            .               ....   ",
"   .                     .  .      ..     ..       .                     .  .   ",
"                         .  .      ..     ..                             .  .   ",
"            ....         ....                               ....         ....   ",
"            .  .     ...                                    .  .     ...        ",
".           .  .     ...                      ...           .  .     ...        ",
".           ....     ...       ...            . .     XXXXXXX...     ...       .",
".                              . .            ...    XoooooooX                 .",
"       ..        ..            ...                  XoooooooooX  ..            .",
"  .    ..        ..      .        .     .         . XooooooooooX ..      .      ",
"                                                    XooooXooOOXX                ",
"+   ++       ++   ++   ++  ++   ++   ++  ++    ++   +XooXooOXX@X  ++   ++  ++   ",
"++++++++++++++++++++++++++++++++++++++++++++++++++++++XoXoOXX@@X++++++++++++++++",
".+++..+++++++..+++..+++..++..+++..+++..++..++++..+++.XoXoOX@@@@X++..+++..++..+++",
"#...##.......##...##...##..##...##...##..##....##...#XoooOX@ooXOX.##...##..##...",
"....................................................XoooOOXoo@XOX.++            ",
"          .  ++..$$$$$$$$$$$$$$$$$$$$$$$$$$$$$$$$$$$XoooOOXooXOOX.++        ..  ",
"             ++..$$.................................XOOOOOOXoXOOX++         ..  ",
"            ++.#.$...                                XOOOOOOXOXX.++             ",
"            ++.#....+++     +                         XXXXXOOXOX.++             ",
"  ..         ++....+++++           ++++            ++XoooooXXXXOX++    ...      ",
"  ..         ++... +++++          ++++++          +++XooooooO%X%X.++   . .      ",
"          .  ++... ++   ..........      ..........  XoooooooO%X%X.++   ...      ",
"       ...  ++.#..     ...........      ........... XoooooooO%X%OX+             ",
"       . .  ++.#.. .....+ ........      ............XoooooooO%X%OX+  .          ",
"       ...   ++... .....  .........    ............XooooooooO%X%OX+          .  ",
"             ++... ................................XooooooooO%X%OX++            ",
"             ++... ................................XooooooooO%X%OX++            ",
" ....       ++.#.. ........................  .....XoooooooooO%X%OX+             ",
" .  .       ++.#.. ........................  .....XoooooooooO%XX%X+  ..         ",
" .  .        ++... ...............................XoooooooooO%XX%X+  ..         ",
" ....     .  ++... ...............................XoooooooooO%XX%X+           . ",
"            ++.#.. ...............................XoooooooooO%XX%X+             ",
"     ...    ++.#..    .............................XoooooooOO%XX%X+             ",
"     ...     ++...+    ............................XXoooooOOO%XX%X+     ....    ",
"     ...     ++...+    .............................XXXOOOOOO%XX%X++    .  .    ",
"             ++...+    ....... .....................XOOXXXOOO%XX%X++    .  .    ",
"            ++.#..    ...............................XOOX&XXXXX*X++     ....    ",
"         .. ++.#.. ..................................XOOOX&&X=X*X++             ",
"         ..  ++... ...................................XOOX&X-X=XX++  ..         ",
"             ++... ...................................XXOOXXXXX=X.++ ..         ",
"    ....     ++... ...................................XOXOOOOXOXX.++            ",
"    .  .    ++.#.. ................................ ..XXXXOOOOXXX++             ",
"    .  .    ++.#.. .....+ ............................X&&XXOXX**X++     ...     ",
"    ....     ++... .....  ............................X&&X-X*****X+     ...     ",
"             ++... ..................................X*&X-X&*****X++    ...     ",
"             ++... ..................................X*&X-X&*****X++            ",
" .           ++... ..................................X*X-X&&&****X+  .     .... ",
"         ..  ++... ..................................X*X-X&&&****X+        .  . ",
"         ..  ++... ..................................XX-XX&&&&****X+       .  . ",
"             ++... ........................  ........XX-X&X&&&****X+       .... ",
"            ++.#.. ........................  ........X-X&&X&&&****X             ",
"            ++.#.. .................................XX-X&&X&&&****X             ",
"  .          ++... .................................X-X&&&&X&&&***X   ...       ",
"          .  ++... .....  .........    .............X-X&&&&X&&&***X+  . .       ",
"             ++... .....+ ........      ...........X-X&&&&&X&&&***X+  ...       ",
"      ...   ++.#..     ...........      ...........X-X&&&&&&&&***X+  .          ",
"      . .   ++.#.. ++   ..........      ..........X-X*&&&&&&&&***X+         ..  ",
"      ...    ++... +++++          ++++++          X-X*&&&&&&&&***X+         ..  ",
"             ++....+++++           ++++          X-X**&&&&&&&&**X.++            ",
"             ++.....+++     +                    X-X*&&&&&&&&***X.++            ",
"  ..         ++..$...                           X-XX*&&&&&&&&***X++             ",
"  ..        ++.#.$$.............................X-X**&&&&&&&&***X++  .          ",
"            ++...................................XX**&&&&&&XX**X................",
"#...##..##...##...##.......##...##....##..##...##.X*&&&&&&XXOX*X..##.......##...",
".+++..++..+++..+++..+++++++..+++..++++..++..+++..+X*&&&&&X&XOXXX++..+++++++..+++",
"+++++++++++++++++++++++++++++++++++++++++++++++++X**&&&&&XXOOOX+++++++++++++++++",
"+   ++  ++   ++   ++       ++   ++    ++  ++   ++X*&&&&&X&XOOOOX  ++       ++   ",
"                                                 XXXX&&&X&XOOOOOXX              ",
"       .      ..        ..    .         .     .  XOOOXX&&&*XXXOOOOX     ..    . ",
"..            ..        ..                     ..XOOOOOXXX*X  XXXXX     ..      ",
" .                              ...            . XXOOOOOOXXX                    ",
"..       ...     ....           . .            ...       ...     ....           ",
"         ...     .  .           ...                      ...     .  .           ",
"         ...     .  .                                    ...     .  .           ",
"    ....         ....                               ....         ....           ",
"    .  .                             ..     ..      .  .                        ",
"    .  .                     .       ..     ..      .  .                     .  ",
"    ....               .                            ....               .        ",
"                                                                                "
};
