/* XPM */
static char *WalkTileDX[] = {
/* columns rows colors chars-per-pixel */
"80 80 14 1 ",
"  c #AEC440",
". c #527F39",
"X c #060608",
"o c #71413B",
"O c #D7E894",
"+ c #422433",
"@ c #E9B5A3",
"# c white",
"$ c #204631",
"% c #F9A31B",
"& c #242234",
"* c #4A5462",
"= c #B9BFFB",
"- c #5B3138",
/* pixels */
"         .               ....                            .               ....   ",
"   .                     .  .      ..     ..       .                     .  .   ",
"                         .  .      ..     ..                             .  .   ",
"            ....         ....                               ....         ....   ",
"            .  .     ...                                    .  .     ...        ",
".           .  .     ...                      ...           .  .     ...        ",
".           ....     ...       ...            . .           ....     ...       .",
".                              . .    XXXXXXX ...                              .",
"       ..        ..            ...  XXoooooooX         ..        ..            .",
"  .    ..        ..      .        .XooooooooooX   .    ..        ..      .      ",
"                                   XoooooooooooX                                ",
"O   OO       OO   OO   OO  OO   OO  XXooXoo+XXXXO   OO       OO   OO   OO  OO   ",
"OOOOOOOOOOOOOOOOOOOOOOOOOOOOOOOOOOOOXooXoo+XXX@XOOOOOOOOOOOOOOOOOOOOOOOOOOOOOOOO",
".OOO..OOOOOOO..OOO..OOO..OO..OOO..OOOXoXo+X@X@@X.OOO..OOOOOOO..OOO..OOO..OO..OOO",
"#...##.......##...##...##..##...##...XXooX@@@@@X#...##.......##...##...##..##...",
".....................................Xoo+X@@ooXX..................OO            ",
"          .  OO..$$$$$$$$$$$$$$$$$$$Xooo+Xooo@XX$$$$$$$$$$$$$$$.#.OO        ..  ",
"             OO..$$.................Xoo++XoooX+X.............$$..OO         ..  ",
"            OO.#.$...               Xo++++XooX+X           ...$..OO             ",
"            OO.#....OOO     O        X+++++XX++X            .....OO             ",
"  ..         OO....OOOOO           OOXXXXXX++X+X   OO        ....OO    ...      ",
"  ..         OO... OOOOO          OOXooooooXXXX+X OOOO     O  ..#.OO   . .      ",
"          .  OO... OO   ..........  Xooooooo+%X%X.    .....   ..#.OO   ...      ",
"       ...  OO.#..     ........... Xoooooooo+%X%X..  .......  ...OO             ",
"       . .  OO.#.. .....O ........ Xoooooooo+%X%+X........... ...OO  .          ",
"       ...   OO... .....  .........Xoooooooo+%X%+X........... ...OO          .  ",
"             OO... ...............Xooooooooo+%X%+X........... ..#.OO            ",
"             OO... ...............Xooooooooo+%X%+X........... ..#.OO            ",
" ....       OO.#.. ...............Xooooooooo+%X%+X..... O.... ...OO             ",
" .  .       OO.#.. ..............Xoooooooooo+%X%+X.....  .... ...OO  ..         ",
" .  .        OO... ..............Xooooooooo+%X&X%X........... ...OO  ..         ",
" ....     .  OO... ..............Xooooooooo+%X&X%X........... ...OO           . ",
"            OO.#.. ..............Xooooooooo+%X&X%X........... ...OO             ",
"     ...    OO.#..    ...........XXoooooooo+%X&X%X........... ...OO             ",
"     ...     OO...O    ..........X*Xoooooo++%XXX%X........... ...OO     ....    ",
"     ...     OO...O    ..........X*XXoooo+++%XXX%X........... ..#.OO    .  .    ",
"             OO...O    ....... ...X++XX+++++%X&X%X.........   ..#.OO    .  .    ",
"            OO.#..    ............X+++XXXX++%X&X%X........   O...OO     ....    ",
"         .. OO.#.. ................X++X&&XXXX&&*X.........   O...OO             ",
"         ..  OO... ................X+++X&&X=X***X..........   ...OO  ..         ",
"             OO... .................X++X*X-X=X**X............ ..#.OO ..         ",
"    ....     OO... ..................X++XXXXX=XXX............ ..#.OO            ",
"    .  .    OO.#.. ..................XX++++X+X++X.. ......... ...OO             ",
"    .  .    OO.#.. .....O ...........XXX++++XXXXX............ ...OO     ...     ",
"    ....     OO... .....  ..........X**XX+XX****X............ ...OO     ...     ",
"             OO... .................X**X-X****&&X............ ..#.OO    ...     ",
"             OO... .................X*X-X****&&&X............ ..#.OO            ",
" .           OO... .................X&X-X****X&&X............ ...OO  .     .... ",
"         ..  OO... .................XX-X*****X&&X............ ...OO        .  . ",
"         ..  OO... .................XX-X****&X&&X............ ..#.OO       .  . ",
"             OO... .................X-X*****&X&*X......  .... ..#.OO       .... ",
"            OO.#.. .................X-X*****&X&*X...... O.... ...OO             ",
"            OO.#.. ................X-XX&****&X&*X............ ...OO             ",
"  .          OO... ................X-XX&****&X&*X............ ...OO   ...       ",
"          .  OO... .....  ........X-XX&X&**&X&**X............ ..#.OO  . .       ",
"             OO... .....O ........X-XX&X&**&X&**X............ ..#.OO  ...       ",
"      ...   OO.#..     ..........X-X X*&X**&X&**X..  .......  ...OO  .          ",
"      . .   OO.#.. OO   .........X-X X*&X**&X&**X.    .....   ...OO         ..  ",
"      ...    OO... OOOOO        X-XOX**&X**&X&*X  OOOO     O  ...OO         ..  ",
"             OO....OOOOO        X-XOX**&X**&X**X   OO        ...#.OO            ",
"             OO.....OOO     O  X-X  X**&X*&X&**X            ....#.OO            ",
"  ..         OO..$...          X-X  X**&**&X&**X           ...$..OO             ",
"  ..        OO.#.$$...........X-X..X******&X&*X..............$$..OO  .          ",
"            OO................X-X..X*****&&X&*X.................................",
"#...##..##...##...##.......##..X##XX****&&X&**X##...##..##...##...##.......##...",
".OOO..OO..OOO..OOO..OOOOOOO..OOO..XX****&&X&**X..OOO..OO..OOO..OOO..OOOOOOO..OOO",
"OOOOOOOOOOOOOOOOOOOOOOOOOOOOOOOOOOX+X**&&&X&**XOOOOOOOOOOOOOOOOOOOOOOOOOOOOOOOOO",
"O   OO  OO   OO   OO       OO   OX++XX*&&&&&*X OO   OO  OO   OO   OO       OO   ",
"                                 X++X&&&&&&&*X                                  ",
"       .      ..        ..    . X+++X&&&&&&**X.        .      ..        ..    . ",
"..            ..        ..      X++++X&&&&&XXX ...            ..        ..      ",
" .                              .XX+++X&&&X+++XX .                              ",
"..       ...     ....           . .XX++X&X++++++X.       ...     ....           ",
"         ...     .  .           ...                      ...     .  .           ",
"         ...     .  .                                    ...     .  .           ",
"    ....         ....                               ....         ....           ",
"    .  .                             ..     ..      .  .                        ",
"    .  .                     .       ..     ..      .  .                     .  ",
"    ....               .                            ....               .        ",
"                                                                                "
};
