/* XPM */
static char *WallTile[] = {
/* columns rows colors chars-per-pixel */
"80 80 3 1 ",
"  c #204631",
". c #AEC440",
"X c #527F39",
/* pixels */
"                                                                                ",
"     . ...... ...     . ...... ..     . ...... ...     . ......     . ...... ...",
"  ...X XXXXXX XXX  ...X XXXXXX XX  ...X XXXXXX XXX  ...X XXXXXX  ...X XXXXXX XXX",
"  XXXX XXXXXX  XX  XXXX XXXXXX  X  XXXX XXXXXX  XX  XXXX XXXXXX  XXXX XXXXXX  XX",
"                                                                                ",
"  ...... ... ....  ...... ... ...  ...... ... ....  ...... ...   ...... ... ....",
"  XXXXXX XXX XXXX  XXXXXX XXX XXX  XXXXXX XXX XXXX  XXXXXX XXX   XXXXXX XXX XXXX",
"  XX  XX  XX XXX   XX  XX  XX XXX  XX  XX  XX XXX   XX  XX  XX   XX  XX  XX XXX ",
"                                                                                ",
" .... ...... ...  .... ...... ... .... ...... ...  .... ......  .... ...... ... ",
" XXXX XXXXXX XXX  XXXX XXXXXX XXX XXXX XXXXXX XXX  XXXX XXXXXX  XXXX XXXXXX XXX ",
"   XX XXX     XX    XX XXX     XX   XX XXX     XX    XX XXX       XX XXX     XX ",
"                                                                                ",
" ..      ..  ...  ..      ..  ... ..      ..  ...  ..      ..   ..      ..  ... ",
" XX.... XXX XXXX  XX.... XXX XXXX XX.... XXX XXXX  XX.... XXX X XX.... XXX XXXX ",
"                  XXXXXX XXX XXXX XXXXXX XXX XXXX  XXXXXX XXX X XXXXXX XXX XXXX ",
"     . ...... ...                                                               ",
"  ...X XXXXXX XXX.XXX .X .... ..X.. X... .... .... .... X. XXX.                 ",
"  XXXX XXXXXX  XX .. .XX.XXX..X.XX..XX...XXX..X..X..XXX.XX. ..      . ...... ...",
"                 ..XX.X.XX .X.XX.XX.XXX.XX .X.XXXX.X. XX.X.XX..  ...X XXXXXX XXX",
"  ...... ... .....X.X .X XXXX XXXX. X..  XXXX XXXX XXXX X. X.X.  XXXX XXXXXX  XX",
"  XXXXXX XXX XXXX.X XX . XX .. XX. . X.. XX .. XX .. XX . XX X.                 ",
"  XX  XX  XX XXX .XXXXXX.X .XX. XX.X. .X.X .XX.  .XX. X.XXXXXX.  ...... ... ....",
"                  .X  .XXX.X.XXXX XXX.XXXX.X.XXXXXX.X.XXX.  X.   XXXXXX XXX XXXX",
" .... ...... ... ... .XXX.XXXXXX  XXX.XXX.XXXXXXXXXXXX.XXX. ...  XX  XX  XX XXX ",
" XXXX XXXXXX XXX ..X...X .XXX XXXX XXXXX .XXX XXXX XXX. X...X..                 ",
"   XX XXX     XX .XX.X .X XX XXXXXX X.X X XX XXXXXX XX X. X.XX. .... ...... ... ",
"                 XXXX .XXXXXXXXX XXX XXXXXXXXXXXXXXXXXXXX. XXXX XXXX XXXXXX XXX ",
" ..      ..  ...  .. .XXXX XXXXXXXXXXXXXXX XXXXXXXXXX XXXX. ..    XX XXX     XX ",
" XX.... XXX XXXX ..X. .XXXXXXXXXXXXXXXXXXXXXXXXXXXXXXXXXX. .X..                 ",
" XXXXXX XXX XXXX .XXX.X XXXXXXXXXXXXXXXXXXXXXXXXXXXXXXXX X.XXX. ..      ..  ... ",
"                 XX.XXXXXXXXXXXXXXXXXXXXXXXXXXXXXXXXXXXXXXXX.XX XX.... XXX XXXX ",
"  ...X XXXXXX XXX ..XXX XXXXXXXXXXXXXXXXXXXXXXXXXXX XX XXXX.XX. XXXXXX XXX XXXX ",
"  XXXX XXXXXX  XX .XXX .XXXXXXXXXXXXXXXXXXXXXXXXXXXXXX  X.XXX..                 ",
"                   .. .XXX XXXXXXXXXXXXXXXXXXXXXXXXXX XX. .X...     . ...... ...",
"  ...... ... .... ..XX.X.XX XXXXXXXXXXXXXXXXXXXXXXXX XXXX. ..    ...X XXXXXX XXX",
"  XXXXXX XXX XXXX..X.X .XXXXXXXXXXXXXXXXXXXXXXXXXXX XXXX. XXXX.  XXXX XXXXXX  XX",
"  XX  XX  XX XXX ..X XX .XXXX XXXXXXXXXXXXXXXXXXXXXX.X.. X.XX..                 ",
"                  .XXXXXX.. XXXXXXXXXXXXXXXXXXXXXXXXXXXX...X...  ...... ... ....",
" .... ...... ...   .X  .XX XXXXXXXXXXXXXXXXXXXXXXXXX XXXX. ...   XXXXXX XXX XXXX",
" XXXX XXXXXX XXX  ... .XXXX XXXXXXXXXXXXXXXXXXXXXXXXX XX.  X.    XX  XX  XX XXX ",
"   XX XXX     XX ...X...XXXXXXXXXXXXXXXXXXXXXXXXXXXX ..XXXXXX.                  ",
"                 ..XX.X ..X.XXXXXXXXXXXXXXXXXXXXXX XXXX. XX X.. .... ...... ... ",
" ..      ..  ... .XXXX .XXXX XXXXXXXXXXXXXXXXXXXXXXXXXXX. X.X.. XXXX XXXXXX XXX ",
" XX.... XXX XXXX   .. .XXXX XXXXXXXXXXXXXXXXXXXXXXXX XX.X.XX..    XX XXX     XX ",
" XXXXXX XXX XXXX ...X. .XX XXXXXXXXXXXXXXXXXXXXXXXXXX XXX. ..                   ",
"                 ..XXX.X  XXXXXXXXXXXXXXXXXXXXXXXXXXXXXX. XXX.  ..      ..  ... ",
"                 .XX.XXXX XX XXXXXXXXXXXXXXXXXXXXXXXXXXX XXX..  XX.... XXX XXXX ",
"     . ...... ...XX.XXXXXXXXXXXXXXXXXXXXXXXXXXXXXXXXXXXXXXXX.XX                 ",
"  ...X XXXXXX XXX.XXX.X XXXXXXXXXXXXXXXXXXXXXXXXXXXXXXXX X.XXX.     . ...... ...",
"  XXXX XXXXXX  XX..X. .XXXXXXXXXXXXXXXXXXXXXXXXXXXXXXXXXX. .X..  ...X XXXXXX XXX",
"                  .. .XXXX XXXXXXXXXXXXXXX XXXXXXXXXX XXXX. ..   XXXX XXXXXX  XX",
"  ...... ... ....XXXX .XXXXXXXXX XXX XXXXXXXXXXXXXXXXXXXX. XXXX                 ",
"  XXXXXX XXX XXXX.XX.X .X XX XXXXXX X.X X XX XXXXXX XX X. X.XX.  ...... ... ....",
"  XX  XX  XX XXX ..X...X .XXX XXXX XXXXX .XXX XXXX XXX. X...X..  XXXXXX XXX XXXX",
"                 ... .XXX.XXXXXX  XXX.XXX.XXXXXXXXXXXX.XXX. ...  XX  XX  XX XXX ",
" .... ...... ...  .X  .XXX.X.XXXX XXX.XXXX.X.XXXXXX.X.XXX.  X.                  ",
" XXXX XXXXXX XXX .XXXXXX.X .XX. XX.X. .X.X .XX.  .XX. X.XXXXXX. .... ...... ... ",
"   XX XXX     XX .X XX . XX .. XX. . X.. XX .. XX .. XX . XX X. XXXX XXXXXX XXX ",
"                 .X.X .X XXXX XXXX. X..  XXXX XXXX XXXX X. X.X.   XX XXX     XX ",
" ..      ..  ... ..XX.X.XX .X.XX.XX.XXX.XX .X.XXXX.X. XX.X.XX..                 ",
" XX.... XXX XXXX  .. .XX.XXX..X.XX..XX...XXX..X..X..XXX.XX. ..  ..      ..  ... ",
" XXXXXX XXX XXXX .XXX .X .... ..X.. X... .... .... .... X. XXX. XX.... XXX XXXX ",
"                                                                                ",
"    . ...... ... . ...... ...     . ...... ...     . ...... ...     . ...... ...",
" ...X XXXXXX XXX.X XXXXXX XXX  ...X XXXXXX XXX  ...X XXXXXX XXX  ...X XXXXXX XXX",
" XXXX XXXXXX  XXXX XXXXXX  XX  XXXX XXXXXX  XX  XXXX XXXXXX  XX  XXXX XXXXXX  XX",
"                                                                                ",
" ...... ... ........ ... ....  ...... ... ....  ...... ... ....  ...... ... ....",
" XXXXXX XXX XXXXXXXX XXX XXXX  XXXXXX XXX XXXX  XXXXXX XXX XXXX  XXXXXX XXX XXXX",
" XX  XX  XX XXX   XX  XX XXX   XX  XX  XX XXX   XX  XX  XX XXX   XX  XX  XX XXX ",
"                                                                                ",
".... ...... ... . ...... ...  .... ...... ...  .... ...... ...  .... ...... ... ",
"XXXX XXXXXX XXX X XXXXXX XXX  XXXX XXXXXX XXX  XXXX XXXXXX XXX  XXXX XXXXXX XXX ",
"  XX XXX     XX X XXX     XX    XX XXX     XX    XX XXX     XX    XX XXX     XX ",
"                                                                                ",
"..      ..  ...      ..  ...  ..      ..  ...  ..      ..  ...  ..      ..  ... ",
"XX.... XXX XXXX ... XXX XXXX  XX.... XXX XXXX  XX.... XXX XXXX  XX.... XXX XXXX ",
"XXXXXX XXX XXXX XXX XXX XXXX  XXXXXX XXX XXXX  XXXXXX XXX XXXX  XXXXXX XXX XXXX ",
"                                                                                "
};
